<svg xmlns="http://www.w3.org/2000/svg" viewBox="0 0 1000 1000" fill="none">
  <defs>
    <radialGradient id="maw" cx="50%" cy="50%" r="50%">
      <stop offset="0%" stop-color="#06343c" stop-opacity="0.9"/>
      <stop offset="62%" stop-color="#0a4750" stop-opacity="0.55"/>
      <stop offset="100%" stop-color="#0a4750" stop-opacity="0"/>
    </radialGradient>
    <radialGradient id="fade" cx="50%" cy="50%" r="50%">
      <stop offset="0%" stop-color="#fff"/>
      <stop offset="78%" stop-color="#fff"/>
      <stop offset="100%" stop-color="#fff" stop-opacity="0"/>
    </radialGradient>
    <mask id="soft"><rect width="1000" height="1000" fill="url(#fade)"/></mask>
  </defs>
  <g mask="url(#soft)">
    <circle cx="500" cy="500" r="480" fill="url(#maw)"/>
    <path d="M960.0,500.0 L803.2,513.2 L958.2,540.1 Z M953.0,579.9 L790.0,564.3 L944.3,619.1 Z M932.3,657.3 L791.6,620.8 L916.9,694.4 Z M898.4,730.0 L748.0,658.0 L876.8,763.8 Z M852.4,795.7 L729.5,710.3 L825.3,825.3 Z M795.7,852.4 L685.7,742.0 L763.8,876.8 Z M730.0,898.4 L635.5,760.4 L694.4,916.9 Z M657.3,932.3 L593.3,795.9 L619.1,944.3 Z M579.9,953.0 L538.2,790.3 L540.1,958.2 Z M500.0,960.0 L486.6,807.2 L459.9,958.2 Z M420.1,953.0 L436.4,787.0 L380.9,944.3 Z M342.7,932.3 L387.2,772.3 L305.6,916.9 Z M270.0,898.4 L334.9,759.1 L236.2,876.8 Z M204.3,852.4 L282.4,737.5 L174.7,825.3 Z M147.6,795.7 L265.2,680.2 L123.2,763.8 Z M101.6,730.0 L234.2,638.4 L83.1,694.4 Z M67.7,657.3 L199.8,594.6 L55.7,619.1 Z M47.0,579.9 L176.1,542.6 L41.8,540.1 Z M40.0,500.0 L187.4,486.4 L41.8,459.9 Z M47.0,420.1 L201.1,433.7 L55.7,380.9 Z M67.7,342.7 L197.2,374.6 L83.1,305.6 Z M101.6,270.0 L252.8,342.5 L123.2,236.2 Z M147.6,204.3 L261.6,281.6 L174.7,174.7 Z M204.3,147.6 L316.0,260.3 L236.2,123.2 Z M270.0,101.6 L363.0,236.8 L305.6,83.1 Z M342.7,67.7 L411.1,217.9 L380.9,55.7 Z M420.1,47.0 L460.5,199.7 L459.9,41.8 Z M500.0,40.0 L514.0,178.5 L540.1,41.8 Z M579.9,47.0 L564.5,208.9 L619.1,55.7 Z M657.3,67.7 L619.8,210.8 L694.4,83.1 Z M730.0,101.6 L669.3,234.2 L763.8,123.2 Z M795.7,147.6 L706.2,274.9 L825.3,174.7 Z M852.4,204.3 L747.3,310.2 L876.8,236.2 Z M898.4,270.0 L760.5,364.4 L916.9,305.6 Z M932.3,342.7 L780.0,411.7 L944.3,380.9 Z M953.0,420.1 L796.5,461.0 L958.2,459.9 Z" fill="#0b4d56" fill-opacity="0.85"/>
    <path d="M828.2,534.5 L723.1,535.3 L822.8,568.6 Z M813.8,602.0 L700.6,577.0 L801.5,634.2 Z M785.8,665.0 L676.0,614.3 L767.0,694.0 Z M745.2,720.8 L656.8,656.8 L720.8,745.2 Z M694.0,767.0 L617.6,681.1 L665.0,785.8 Z M634.2,801.5 L575.0,695.4 L602.0,813.8 Z M568.6,822.8 L536.1,728.0 L534.5,828.2 Z M500.0,830.0 L488.1,726.4 L465.5,828.2 Z M431.4,822.8 L446.5,699.8 L398.0,813.8 Z M365.8,801.5 L399.6,697.1 L335.0,785.8 Z M306.0,767.0 L362.1,670.3 L279.2,745.2 Z M254.8,720.8 L317.9,647.5 L233.0,694.0 Z M214.2,665.0 L296.8,603.5 L198.5,634.2 Z M186.2,602.0 L298.4,554.0 L177.2,568.6 Z M171.8,534.5 L261.4,512.5 L170.0,500.0 Z M171.8,465.5 L301.1,468.5 L177.2,431.4 Z M186.2,398.0 L299.8,423.2 L198.5,365.8 Z M214.2,335.0 L307.8,375.2 L233.0,306.0 Z M254.8,279.2 L356.6,356.6 L279.2,254.8 Z M306.0,233.0 L381.5,317.6 L335.0,214.2 Z M365.8,198.5 L429.1,315.2 L398.0,186.2 Z M431.4,177.2 L464.7,277.4 L465.5,171.8 Z M500.0,170.0 L512.0,270.8 L534.5,171.8 Z M568.6,177.2 L557.2,286.4 L602.0,186.2 Z M634.2,198.5 L606.4,291.2 L665.0,214.2 Z M694.0,233.0 L632.1,336.9 L720.8,254.8 Z M745.2,279.2 L676.0,357.4 L767.0,306.0 Z M785.8,335.0 L697.9,399.2 L801.5,365.8 Z M813.8,398.0 L713.9,442.7 L822.8,431.4 Z M828.2,465.5 L715.8,488.7 L830.0,500.0 Z" fill="#0b4d56" fill-opacity="0.5"/>
  </g>
</svg>